<?xml version="1.0" encoding="utf-8"?>
<!-- Generator: Adobe Illustrator 15.0.0, SVG Export Plug-In . SVG Version: 6.00 Build 0)  -->
<!DOCTYPE svg PUBLIC "-//W3C//DTD SVG 1.1//EN" "http://www.w3.org/Graphics/SVG/1.1/DTD/svg11.dtd">
<svg version="1.1" id="Layer_2" xmlns="http://www.w3.org/2000/svg" xmlns:xlink="http://www.w3.org/1999/xlink" x="0px" y="0px"
	 width="556px" height="508px" viewBox="0 0 556 508" enable-background="new 0 0 556 508" xml:space="preserve">
<circle fill="#EB2528" cx="278.75" cy="93.25" r="36.75"/>
<path fill="#EB2528" d="M338.762,135.75l-54.553-0.29c-1.931,0-6.487,0-8.418,0l-54.553,0.29c-11.246,0-13.238,15.625-13.238,30.125
	V264.5c0,6.627,1.51,13.125,4.917,13.125l14.958-0.295c3.042,0,4.292-4.33,4.292-12.246v-70.442c0-4.497,1.5-8.142,3.351-8.142
	h0.465c1.851,0,3.351,3.645,3.351,8.142l0.041,222.88c0,6.627,5.373,12,12,12h14.25c6.627,0,12-5.373,12-12V275.189
	c0.969-0.96,1.785-2.409,2.375-4.17c0.59,1.761,1.406,3.21,2.375,4.17v142.332c0,6.627,5.373,12,12,12h14.25c6.627,0,12-5.373,12-12
	l0.041-222.88c0-4.497,1.5-8.142,3.352-8.142h0.465c1.851,0,3.351,3.645,3.351,8.142v70.442c0,7.916,1.25,12.246,4.292,12.246
	l14.958,0.295c3.407,0,4.917-6.498,4.917-13.125v-98.625C352,151.375,350.008,135.75,338.762,135.75z"/>
<circle fill="#FDB143" cx="94.75" cy="93.25" r="36.75"/>
<path fill="#FDB143" d="M154.762,135.75l-54.553-0.29c-1.931,0-6.487,0-8.418,0l-54.553,0.29C25.992,135.75,24,151.375,24,165.875
	V264.5c0,6.627,1.51,13.125,4.917,13.125l14.958-0.295c3.042,0,4.292-4.33,4.292-12.246v-70.442c0-4.497,1.5-8.142,3.351-8.142
	h0.465c1.851,0,3.351,3.645,3.351,8.142l0.041,222.88c0,6.627,5.373,12,12,12h14.25c6.627,0,12-5.373,12-12V275.189
	c0.969-0.96,1.785-2.409,2.375-4.17c0.59,1.761,1.406,3.21,2.375,4.17v142.332c0,6.627,5.373,12,12,12h14.25c6.627,0,12-5.373,12-12
	l0.041-222.88c0-4.497,1.5-8.142,3.352-8.142h0.465c1.851,0,3.351,3.645,3.351,8.142v70.442c0,7.916,1.25,12.246,4.292,12.246
	l14.958,0.295c3.407,0,4.917-6.498,4.917-13.125v-98.625C168,151.375,166.008,135.75,154.762,135.75z"/>
<circle fill="#1FBDBE" cx="462.75" cy="93.25" r="36.75"/>
<path fill="#1FBDBE" d="M522.762,135.75l-54.553-0.29c-1.931,0-6.486,0-8.418,0l-54.553,0.29c-11.246,0-13.238,15.625-13.238,30.125
	V264.5c0,6.627,1.51,13.125,4.917,13.125l14.958-0.295c3.042,0,4.292-4.33,4.292-12.246v-70.442c0-4.497,1.5-8.142,3.351-8.142
	h0.465c1.852,0,3.352,3.645,3.352,8.142l0.041,222.88c0,6.627,5.373,12,12,12h14.25c6.627,0,12-5.373,12-12V275.189
	c0.969-0.96,1.785-2.409,2.375-4.17c0.59,1.761,1.406,3.21,2.375,4.17v142.332c0,6.627,5.373,12,12,12h14.25c6.627,0,12-5.373,12-12
	l0.041-222.88c0-4.497,1.5-8.142,3.352-8.142h0.465c1.851,0,3.351,3.645,3.351,8.142v70.442c0,7.916,1.25,12.246,4.292,12.246
	l14.958,0.295c3.407,0,4.917-6.498,4.917-13.125v-98.625C536,151.375,534.008,135.75,522.762,135.75z"/>
</svg>
