<?xml version="1.0" encoding="utf-8"?>
<!-- Generator: Adobe Illustrator 15.0.0, SVG Export Plug-In . SVG Version: 6.00 Build 0)  -->
<!DOCTYPE svg PUBLIC "-//W3C//DTD SVG 1.1//EN" "http://www.w3.org/Graphics/SVG/1.1/DTD/svg11.dtd">
<svg version="1.1"
	 id="svg2985" inkscape:version="0.48.4 r9939" sodipodi:docname="dropbox-logos_dropbox-logotype-blue.pdf" xmlns:dc="http://purl.org/dc/elements/1.1/" xmlns:cc="http://creativecommons.org/ns#" xmlns:rdf="http://www.w3.org/1999/02/22-rdf-syntax-ns#" xmlns:inkscape="http://www.inkscape.org/namespaces/inkscape" xmlns:svg="http://www.w3.org/2000/svg" xmlns:sodipodi="http://sodipodi.sourceforge.net/DTD/sodipodi-0.dtd"
	 xmlns="http://www.w3.org/2000/svg" xmlns:xlink="http://www.w3.org/1999/xlink" x="0px" y="0px" width="142.5px" height="131px"
	 viewBox="50.25 41.25 142.5 131" enable-background="new 50.25 41.25 142.5 131" xml:space="preserve">
<sodipodi:namedview  id="namedview2987" inkscape:window-maximized="1" inkscape:pageopacity="0" inkscape:pageshadow="2" inkscape:current-layer="g2993" inkscape:window-height="1018" inkscape:window-width="1920" inkscape:window-y="-8" inkscape:window-x="-8" inkscape:cx="278.75" objecttolerance="10" borderopacity="1" inkscape:zoom="0.59730942" pagecolor="#ffffff" bordercolor="#666666" showgrid="false" gridtolerance="10" guidetolerance="10" inkscape:cy="106.25">
	</sodipodi:namedview>
<g id="g2993" transform="matrix(1.25,0,0,-1.25,0,212.5)" inkscape:groupmode="layer" inkscape:label="dropbox-logos_dropbox-logotype-blue">
	<g id="g2995" transform="translate(76.1162,130.9785)">
		<path id="path2997" fill="#1D73AC" d="M0,0l-29.63-19.346l20.487-16.406l29.875,18.447L0,0z"/>
	</g>
	<g id="g2999" transform="translate(46.4863,78.8198)">
		<path id="path3001" fill="#1D73AC" d="M0,0.001l29.63-19.347L50.362-2.04L20.487,16.407L0,0.001z"/>
	</g>
	<g id="g3003" transform="translate(96.8486,76.7798)">
		<path id="path3005" fill="#1D73AC" d="M0,0l20.733-17.306L50.362,2.041L29.875,18.447L0,0z"/>
	</g>
	<g id="g3007" transform="translate(147.2109,111.6328)">
		<path id="path3009" fill="#1D73AC" d="M0,0l-29.629,19.346L-50.362,2.041l29.875-18.447L0,0z"/>
	</g>
	<g id="g3011" transform="translate(96.9092,73.0566)">
		<path id="path3013" fill="#1D73AC" d="M0,0l-20.793-17.253l-8.897,5.809v-6.513L0-35.763l29.691,17.805v6.513l-8.896-5.809L0,0z"
			/>
	</g>
</g>
</svg>
