<?xml version="1.0" encoding="utf-8"?>
<!-- Generator: Adobe Illustrator 15.0.0, SVG Export Plug-In . SVG Version: 6.00 Build 0)  -->
<!DOCTYPE svg PUBLIC "-//W3C//DTD SVG 1.1//EN" "http://www.w3.org/Graphics/SVG/1.1/DTD/svg11.dtd">
<svg version="1.1" xmlns="http://www.w3.org/2000/svg" xmlns:xlink="http://www.w3.org/1999/xlink" x="0px" y="0px" width="1041px"
	 height="431px" viewBox="0 0 1041 431" enable-background="new 0 0 1041 431" xml:space="preserve">
<g id="fond">
	<rect x="-137" y="-71" display="none" fill="#1FBDBE" stroke="#231F20" stroke-miterlimit="10" width="1282" height="502"/>
	<circle fill="#FFFFFF" cx="-20" cy="274" r="137"/>
	<g>
		<circle fill="none" stroke="#1D73AC" stroke-width="10" stroke-miterlimit="10" cx="492.888" cy="238.514" r="27.494"/>
		<path fill="none" stroke="#1D73AC" stroke-width="10" stroke-miterlimit="10" d="M547.879,238.514
			c0,30.372-24.619,54.99-54.99,54.99c-30.375,0-54.992-24.618-54.992-54.99c0-30.373,24.617-54.993,54.992-54.993
			C523.26,183.521,547.879,208.141,547.879,238.514z"/>
		<path fill="none" stroke="#1D73AC" stroke-width="10" stroke-miterlimit="10" d="M575.372,238.515
			c0,45.56-36.925,82.485-82.483,82.485c-45.561,0-82.485-36.926-82.485-82.485s36.925-82.491,82.485-82.491
			C538.447,156.023,575.372,192.955,575.372,238.515z"/>
		<circle fill="#EB2528" cx="951.5" cy="368.5" r="169.5"/>
	</g>
	<circle fill="#1D73AC" cx="726" cy="360" r="196"/>
	<g>
		<circle fill="none" stroke="#FFFFFF" stroke-width="10" stroke-miterlimit="10" cx="348.052" cy="306.467" r="28.905"/>
		<path fill="none" stroke="#FFFFFF" stroke-width="10" stroke-miterlimit="10" d="M405.865,306.467
			c0,31.933-25.882,57.813-57.813,57.813c-31.933,0-57.813-25.88-57.813-57.813c0-31.931,25.88-57.815,57.813-57.815
			C379.982,248.651,405.865,274.536,405.865,306.467z"/>
		<path fill="none" stroke="#FFFFFF" stroke-width="10" stroke-miterlimit="10" d="M434.77,306.469
			c0,47.898-38.82,86.719-86.718,86.719s-86.718-38.82-86.718-86.719c0-47.897,38.82-86.725,86.718-86.725
			S434.77,258.571,434.77,306.469z"/>
		<path fill="none" stroke="#FFFFFF" stroke-width="10" stroke-miterlimit="10" d="M463.678,306.471
			c0,63.861-51.76,115.624-115.624,115.624s-115.625-51.763-115.625-115.624c0-63.866,51.762-115.634,115.625-115.634
			S463.678,242.604,463.678,306.471z"/>
		<path fill="none" stroke="#FFFFFF" stroke-width="10" stroke-miterlimit="10" d="M492.583,306.469
			c0,79.839-64.7,144.531-144.531,144.531s-144.53-64.692-144.53-144.531c0-79.829,64.699-144.537,144.53-144.537
			S492.583,226.64,492.583,306.469z"/>
	</g>
	<linearGradient id="SVGID_1_" gradientUnits="userSpaceOnUse" x1="117.7148" y1="149.3491" x2="111.2805" y2="517.9727">
		<stop  offset="0" style="stop-color:#EB2528"/>
		<stop  offset="0.116" style="stop-color:#DC2527"/>
		<stop  offset="0.3397" style="stop-color:#B42326"/>
		<stop  offset="0.6484" style="stop-color:#742123"/>
		<stop  offset="1" style="stop-color:#231F20"/>
	</linearGradient>
	<path fill="url(#SVGID_1_)" d="M234.792,193.611C221.839,210.849,201.223,222,178,222c-39.213,0-71-31.787-71-71
		c0-0.616,0.031-1.225,0.046-1.837C8.607,153.076-70,234.102-70,333.5C-70,435.396,12.604,518,114.5,518S299,435.396,299,333.5
		C299,277.564,274.104,227.446,234.792,193.611z"/>
	<g>
		<path fill="none" stroke="#1D73AC" stroke-width="30" stroke-miterlimit="10" d="M218.677,414.013
			c0,26.876-21.781,48.658-48.658,48.658s-48.661-21.782-48.661-48.658c0-26.878,21.784-48.665,48.661-48.665
			S218.677,387.135,218.677,414.013z"/>
		<path fill="none" stroke="#1D73AC" stroke-width="30" stroke-miterlimit="10" d="M267.343,414.013
			c0,53.753-43.573,97.324-97.324,97.324c-53.758,0-97.326-43.571-97.326-97.324c0-53.755,43.568-97.328,97.326-97.328
			C223.77,316.685,267.343,360.258,267.343,414.013z"/>
		<path fill="none" stroke="#1D73AC" stroke-width="30" stroke-miterlimit="10" d="M316,414.015
			C316,494.647,250.649,560,170.019,560c-80.635,0-145.984-65.353-145.984-145.985c0-80.632,65.35-145.995,145.984-145.995
			C250.649,268.02,316,333.383,316,414.015z"/>
	</g>
	<g>
		<path fill="none" stroke="#1D73AC" stroke-width="30" stroke-miterlimit="10" d="M1089.049,265.017
			c0,26.876-21.781,48.658-48.658,48.658s-48.661-21.782-48.661-48.658c0-26.878,21.784-48.665,48.661-48.665
			S1089.049,238.139,1089.049,265.017z"/>
		<path fill="none" stroke="#1D73AC" stroke-width="30" stroke-miterlimit="10" d="M1137.715,265.017
			c0,53.753-43.573,97.324-97.324,97.324c-53.758,0-97.326-43.571-97.326-97.324c0-53.755,43.568-97.328,97.326-97.328
			C1094.142,167.688,1137.715,211.262,1137.715,265.017z"/>
		<path fill="none" stroke="#1D73AC" stroke-width="30" stroke-miterlimit="10" d="M1186.372,265.019
			c0,80.633-65.351,145.985-145.981,145.985c-80.635,0-145.984-65.353-145.984-145.985c0-80.632,65.35-145.995,145.984-145.995
			C1121.021,119.023,1186.372,184.387,1186.372,265.019z"/>
	</g>
	<g>
		<circle fill="none" stroke="#1FBDBE" stroke-width="10" stroke-miterlimit="10" cx="2.888" cy="187.514" r="27.494"/>
		<path fill="none" stroke="#1FBDBE" stroke-width="10" stroke-miterlimit="10" d="M57.879,187.514
			c0,30.372-24.619,54.99-54.99,54.99c-30.375,0-54.992-24.618-54.992-54.99c0-30.373,24.617-54.993,54.992-54.993
			C33.26,132.521,57.879,157.141,57.879,187.514z"/>
		<path fill="none" stroke="#1FBDBE" stroke-width="10" stroke-miterlimit="10" d="M85.372,187.515
			c0,45.56-36.925,82.485-82.483,82.485c-45.561,0-82.485-36.926-82.485-82.485s36.925-82.491,82.485-82.491
			C48.447,105.023,85.372,141.955,85.372,187.515z"/>
	</g>
	<circle fill="#EB2528" cx="611" cy="246" r="84"/>
	<radialGradient id="SVGID_2_" cx="418" cy="338" r="124" gradientUnits="userSpaceOnUse">
		<stop  offset="0" style="stop-color:#231F20;stop-opacity:0"/>
		<stop  offset="0" style="stop-color:#231F20;stop-opacity:0"/>
		<stop  offset="1" style="stop-color:#231F20"/>
		<stop  offset="1" style="stop-color:#322922;stop-opacity:0.9946"/>
		<stop  offset="1" style="stop-color:#5A4429;stop-opacity:0.9842"/>
		<stop  offset="1" style="stop-color:#9A6F33;stop-opacity:0.9698"/>
		<stop  offset="1" style="stop-color:#F2A941;stop-opacity:0.9522"/>
		<stop  offset="1" style="stop-color:#FDB143;stop-opacity:0.95"/>
	</radialGradient>
	<circle opacity="0.38" fill="url(#SVGID_2_)" cx="418" cy="338" r="124"/>
	<linearGradient id="SVGID_3_" gradientUnits="userSpaceOnUse" x1="553.6914" y1="357.6895" x2="804.3096" y2="434.3111">
		<stop  offset="0" style="stop-color:#1FBDBE"/>
		<stop  offset="1" style="stop-color:#000000"/>
	</linearGradient>
	<circle fill="url(#SVGID_3_)" cx="679" cy="396" r="131"/>
	<circle fill="#FDB143" cx="590" cy="391" r="95"/>
	<circle fill="#FDB143" cx="278.5" cy="387.5" r="140.5"/>
	<circle fill="#EB2528" cx="289.5" cy="482.5" r="116.5"/>
	<g>
		<line fill="none" stroke="#FFFFFF" stroke-width="5" stroke-miterlimit="10" x1="206" y1="390" x2="389" y2="573"/>
		<line fill="none" stroke="#FFFFFF" stroke-width="5" stroke-miterlimit="10" x1="206" y1="369" x2="389" y2="552"/>
		<line fill="none" stroke="#FFFFFF" stroke-width="5" stroke-miterlimit="10" x1="206" y1="348" x2="389" y2="531"/>
		<line fill="none" stroke="#FFFFFF" stroke-width="5" stroke-miterlimit="10" x1="206" y1="327" x2="389" y2="510"/>
		<line fill="none" stroke="#FFFFFF" stroke-width="5" stroke-miterlimit="10" x1="206" y1="306" x2="389" y2="489"/>
		<line fill="none" stroke="#FFFFFF" stroke-width="5" stroke-miterlimit="10" x1="206" y1="285" x2="389" y2="468"/>
	</g>
	<g>
		<line fill="none" stroke="#EB2528" stroke-width="5" stroke-miterlimit="10" x1="846" y1="428" x2="1029" y2="611"/>
		<line fill="none" stroke="#EB2528" stroke-width="5" stroke-miterlimit="10" x1="846" y1="407" x2="1029" y2="590"/>
		<line fill="none" stroke="#EB2528" stroke-width="5" stroke-miterlimit="10" x1="846" y1="386" x2="1029" y2="569"/>
		<line fill="none" stroke="#EB2528" stroke-width="5" stroke-miterlimit="10" x1="846" y1="365" x2="1029" y2="548"/>
		<line fill="none" stroke="#EB2528" stroke-width="5" stroke-miterlimit="10" x1="846" y1="344" x2="1029" y2="527"/>
		<line fill="none" stroke="#EB2528" stroke-width="5" stroke-miterlimit="10" x1="846" y1="323" x2="1029" y2="506"/>
	</g>
	<circle fill="#1FBDBE" cx="370.5" cy="418.5" r="80.5"/>
</g>
<g id="Layer_3">
	<circle fill="#EB2528" cx="871" cy="159" r="17"/>
	<circle fill="#EB2528" cx="907.5" cy="114.5" r="13.5"/>
	<circle fill="#EB2528" cx="952" cy="88" r="9"/>
	<circle fill="#1FBDBE" cx="801.5" cy="255.5" r="28.5"/>
	<ellipse fill="#1D73AC" cx="177.5" cy="152" rx="61.5" ry="63"/>
	<linearGradient id="SVGID_4_" gradientUnits="userSpaceOnUse" x1="776.8848" y1="209.543" x2="801.1164" y2="152.4568">
		<stop  offset="0" style="stop-color:#FDB143;stop-opacity:0.61"/>
		<stop  offset="1" style="stop-color:#FDB143;stop-opacity:0.95"/>
	</linearGradient>
	<circle fill="url(#SVGID_4_)" cx="789" cy="181" r="31"/>
	<circle fill="#FFFFFF" cx="55.5" cy="133.5" r="14.5"/>
	<circle fill="#FFFFFF" cx="759" cy="427" r="27"/>
	<circle fill="#FFFFFF" cx="743.5" cy="367.5" r="12.5"/>
	<circle fill="#FFFFFF" cx="701" cy="335" r="9"/>
	<g>
		<path fill="#FFFFFF" d="M718.911,104.24h-1.54c-0.615,6.28-1.478,13.915-12.313,13.915h-4.987c-2.895,0-3.018-0.431-3.018-2.463
			V82.999c0-2.094,0-2.956,5.788-2.956h2.032v-1.847c-2.217,0.185-7.758,0.185-10.283,0.185c-2.4,0-7.203,0-9.297-0.185v1.847h1.416
			c4.741,0,4.864,0.678,4.864,2.894v32.325c0,2.217-0.123,2.894-4.864,2.894h-1.416v1.908h31.955L718.911,104.24z"/>
		<path fill="#FFFFFF" d="M717.863,78.134c-0.245-0.739-0.368-0.985-1.169-0.985s-0.985,0.247-1.231,0.985l-9.913,25.121
			c-0.432,1.047-1.17,2.956-4.987,2.956v1.54h9.543v-1.54c-1.908,0-3.078-0.862-3.078-2.093c0-0.308,0.062-0.431,0.185-0.862
			l2.094-5.295h12.191l2.463,6.28c0.122,0.246,0.245,0.554,0.245,0.739c0,1.231-2.339,1.231-3.509,1.231v1.54h12.13v-1.54h-0.862
			c-2.895,0-3.201-0.431-3.633-1.662L717.863,78.134z M715.4,82.506l5.48,13.915h-10.96L715.4,82.506z"/>
		<path fill="#FFFFFF" d="M767.183,78.565h-37.497l-1.107,13.792h1.477c0.862-9.913,1.785-11.945,11.083-11.945
			c1.108,0,2.709,0,3.325,0.123c1.293,0.247,1.293,0.924,1.293,2.34V115.2c0,2.093,0,2.956-6.465,2.956h-2.463v1.908
			c2.524-0.185,8.743-0.185,11.575-0.185s9.174,0,11.699,0.185v-1.908h-2.465c-6.464,0-6.464-0.862-6.464-2.956V82.875
			c0-1.232,0-2.094,1.108-2.34c0.677-0.123,2.34-0.123,3.51-0.123c9.235,0,10.159,2.032,11.021,11.945h1.54L767.183,78.565z"/>
		<path fill="#FFFFFF" d="M800.185,118.094h-1.539c-1.54,9.42-2.956,13.915-13.484,13.915h-8.127c-2.895,0-3.017-0.432-3.017-2.462
			v-16.378h5.479c5.973,0,6.649,1.97,6.649,7.204h1.54v-16.255h-1.54c0,5.233-0.677,7.142-6.649,7.142h-5.479V96.544
			c0-2.032,0.122-2.463,3.017-2.463h7.881c9.42,0,11.021,3.386,12.006,11.945h1.539l-1.724-13.792h-34.479v1.847h1.415
			c4.742,0,4.865,0.677,4.865,2.894v32.14c0,2.217-0.123,2.894-4.865,2.894h-1.415v1.909h35.342L800.185,118.094z"/>
		<path fill="#FFFFFF" d="M818.718,96.359l8.435-12.314c1.293-1.97,3.387-3.94,8.866-4.002v-1.847h-14.653v1.847
			c2.462,0.062,3.816,1.417,3.816,2.833c0,0.616-0.123,0.738-0.554,1.416l-7.02,10.344l-7.88-11.821
			c-0.123-0.185-0.432-0.678-0.432-0.924c0-0.739,1.354-1.786,3.94-1.848v-1.847c-2.094,0.185-6.588,0.185-8.929,0.185
			c-1.908,0-5.725-0.062-8.004-0.185v1.847h1.17c3.388,0,4.557,0.432,5.727,2.155l11.268,17.055l-10.036,14.838
			c-0.861,1.231-2.709,4.064-8.866,4.064v1.908h14.653v-1.908c-2.832-0.062-3.879-1.724-3.879-2.833c0-0.554,0.186-0.8,0.616-1.478
			l8.682-12.869l9.729,14.654c0.123,0.247,0.308,0.492,0.308,0.677c0,0.739-1.354,1.786-4.003,1.847v1.908
			c2.155-0.185,6.65-0.185,8.929-0.185c2.586,0,5.418,0.062,8.004,0.185v-1.908h-1.17c-3.201,0-4.495-0.308-5.787-2.216
			L818.718,96.359z"/>
	</g>
</g>
</svg>
